<!DOCTYPE svg PUBLIC "-//W3C//DTD SVG 1.1//EN" "http://www.w3.org/Graphics/SVG/1.1/DTD/svg11.dtd">
<!-- Uploaded to: SVG Repo, www.svgrepo.com, Transformed by: SVG Repo Mixer Tools -->
<svg fill="#2D963D" version="1.1" id="Capa_1" xmlns="http://www.w3.org/2000/svg" xmlns:xlink="http://www.w3.org/1999/xlink" width="800px" height="800px" viewBox="0 0 94.00 94.00" xml:space="preserve">
<g id="SVGRepo_bgCarrier" stroke-width="0"/>
<g id="SVGRepo_iconCarrier"> <g> <g> <polygon points="19.283,62.614 28.369,62.614 31.236,52.816 16.233,52.816 "/> <polygon points="53.229,42.223 55.486,42.223 56.045,33.148 52.67,33.148 "/> <rect x="13.754" y="40.06" width="20.619" height="8.211"/> <path d="M89,0H5C2.238,0,0,2.239,0,5v84c0,2.761,2.238,5,5,5h84c2.762,0,5-2.239,5-5V5C94,2.239,91.762,0,89,0z M44.241,66.507 H3.45v-3.893h10.066l-3.05-9.798H6.873V35.637h34.166v17.181h-4.036l-2.866,9.797h10.104V66.507z M44.426,31.318H3.641V26.81 h40.785V31.318z M53.174,67.803l-3.92-1.72c0.027-0.063,2.528-5.815,2.922-10.065l-3.865,0.698v-4.174l3.918-0.646v-5.393h-4.638 v-4.281h2.181l-0.56-9.075h-0.703v-3.451h4.116v-3.391h3.451v3.391h4.152v3.451h-0.728l-0.558,9.075h1.642v4.281h-4.077v4.78 l3-0.587v4.051l-3.005,0.466C56.406,60.376,53.309,67.496,53.174,67.803z M75.665,67.41c-3.541-5.622-3.333-14.434-3.308-15.182 V30.435l-2.213,0.492V62.23l2.379-0.006v3.69l-8.729,0.964l-0.037-0.327v-4.305l2.718-0.006v-30.5l-1.966,0.437v22.787 c0,4.616-3.427,12.391-3.571,12.721l-3.354-1.486c0.905-2.045,3.257-8.047,3.257-11.234V29.234l13.364-3.038l2.821,3.389l-1,0.239 L76.023,52.33c-0.004,0.086-0.279,8.814,2.99,13.498l0.506,0.613C78.23,66.74,76.947,67.061,75.665,67.41z M90.55,46.504h-4.587 v5.197h3.898v4.283h-3.898v11.313h-4.279V55.984h-3.898v-4.283h3.898v-5.197h-4.588v-4.281H79.2l-0.837-8.804h-1.053v-3.914h4.662 v-3.2h3.67v3.2h4.664v3.914h-1.17l-0.593,8.804h2.006V46.504z"/> <polygon points="82.893,42.223 84.852,42.223 85.441,33.419 82.057,33.419 "/> </g> </g> </g>
</svg>